# xmcd
#
# Track frame offsets: 
#        151
#        21230
#        53327
#        74126
#        98569
#        119930
#        136805
#        155348
#        176583
#
# Disc length: 2626 seconds
#
# Revision: 0
# Processed by: cddbd v1.4PL0 Copyright (c) Steve Scherf et al.
# Submitted via: ExactAudioCopy v0.95a3
#
DISCID=790a4009
DTITLE=Various Artist - 大地校园民谣珍藏版
DYEAR=1900
DGENRE=Pop
TTITLE0=情感往事
TTITLE1=你是朋友吗
TTITLE2=你不在的北京下着雨
TTITLE3=青春同路人
TTITLE4=初恋
TTITLE5=不安
TTITLE6=理想主义 EMPTY
TTITLE7=情人
TTITLE8=上学上班
EXTD=
EXTT0=情感往事
EXTT1=
EXTT2=
EXTT3=
EXTT4=
EXTT5=
EXTT6=
EXTT7=
EXTT8=
PLAYORDER=
